<?xml version="1.0" encoding="UTF-8" standalone="no"?>
<!-- Created with Inkscape (http://www.inkscape.org/) -->

<svg
   xmlns:dc="http://purl.org/dc/elements/1.1/"
   xmlns:cc="http://creativecommons.org/ns#"
   xmlns:rdf="http://www.w3.org/1999/02/22-rdf-syntax-ns#"
   xmlns:svg="http://www.w3.org/2000/svg"
   xmlns="http://www.w3.org/2000/svg"
   xmlns:sodipodi="http://sodipodi.sourceforge.net/DTD/sodipodi-0.dtd"
   xmlns:inkscape="http://www.inkscape.org/namespaces/inkscape"
   width="279.19138mm"
   height="58.341099mm"
   viewBox="0 0 279.19138 58.341099"
   version="1.1"
   id="svg8"
   inkscape:version="0.92.4 (5da689c313, 2019-01-14)"
   sodipodi:docname="GIMMELogo.svg">
  <defs
     id="defs2" />
  <sodipodi:namedview
     id="base"
     pagecolor="#ffffff"
     bordercolor="#666666"
     borderopacity="1.0"
     inkscape:pageopacity="0.0"
     inkscape:pageshadow="2"
     inkscape:zoom="0.35"
     inkscape:cx="1078.5395"
     inkscape:cy="257.41534"
     inkscape:document-units="mm"
     inkscape:current-layer="layer1"
     showgrid="false"
     inkscape:window-width="1920"
     inkscape:window-height="1051"
     inkscape:window-x="-9"
     inkscape:window-y="-9"
     inkscape:window-maximized="1"
     units="mm"
     fit-margin-top="0"
     fit-margin-left="0"
     fit-margin-right="0"
     fit-margin-bottom="0" />
  <metadata
     id="metadata5">
    <rdf:RDF>
      <cc:Work
         rdf:about="">
        <dc:format>image/svg+xml</dc:format>
        <dc:type
           rdf:resource="http://purl.org/dc/dcmitype/StillImage" />
        <dc:title></dc:title>
      </cc:Work>
    </rdf:RDF>
  </metadata>
  <g
     inkscape:label="Layer 1"
     inkscape:groupmode="layer"
     id="layer1"
     transform="translate(-9.3291757,-158.60004)">
    <g
       id="layer1-2"
       inkscape:label="Layer 1"
       transform="matrix(1.7476175,0,0,1.7476175,-35.850522,123.89593)">
      <path
         sodipodi:nodetypes="cccccccccssccccsscssccscscccccccccccsccscscccccccssccscccssccscsccsccscccccsccscscccccccscccscscssccscsccscssccccscsscsscccsccccscccscccccsccccccsscccsscsccccccccccccccsscsccccccscsccscccccscs"
         inkscape:connector-curvature="0"
         d="m 50.450471,20.876216 c -5.703196,4.97e-4 -11.214992,2.550857 -16.535046,7.650875 -5.320615,5.086615 -7.980676,10.569319 -7.980692,16.448114 0,2.446022 0.729559,4.363927 2.188679,5.753713 1.459103,1.375888 3.426703,2.063831 5.902765,2.063831 6.121163,-0.658132 10.079471,-2.693979 14.483674,-5.867537 0.07715,-0.0589 0.145491,-0.106955 0.217871,-0.157289 -0.0046,0.01026 0.0034,0 0.0073,0 3.626424,-2.268425 4.470149,-4.335768 5.893138,-7.525793 0.442161,-1.000646 0.663241,-1.69533 0.663241,-2.08447 0,-0.861667 0.434549,-1.251066 -0.508258,-2.403014 -0.676709,-0.826823 -5.044926,-2.103521 -7.893621,0.389328 -0.994207,1.133271 -1.008809,3.046779 -0.03331,2.596916 9.770178,0.377568 1.021827,6.205872 -1.159467,7.609557 -2.166557,1.389785 -4.20793,2.432125 -6.123948,3.127018 -1.901263,0.680995 -3.581447,1.021283 -5.040567,1.021283 -3.168779,0 -4.753066,-1.626049 -4.753066,-4.878147 0,-2.79347 0.921046,-5.677067 2.76336,-8.651207 1.857051,-2.98804 4.384814,-5.635582 7.583067,-7.942626 3.198254,-2.307044 6.079463,-3.46067 8.643917,-3.46067 1.002205,0 1.746723,0.173828 2.233097,0.521274 0.486373,0.347445 0.935682,0.972848 1.34835,1.876211 0.250556,0.569811 0.567549,0.854614 0.950742,0.854614 0.574799,0 1.16425,-0.458631 1.768524,-1.375888 0.619029,-0.931158 0.928517,-1.778821 0.928517,-2.543204 0,-0.875564 -0.508479,-1.598462 -1.525439,-2.168275 -1.001882,-0.56962 -2.342439,-0.854421 -4.021842,-0.854614 z m 49.957309,9.934848 c -4.568758,5.948281 -7.229328,8.998653 -7.980994,9.151529 -0.176868,0 -0.405419,-0.201414 -0.68545,-0.604452 -0.265292,-0.416936 -0.979894,-2.223554 -2.144229,-5.420059 l -2.433489,-6.230043 c -0.265294,-0.653199 -0.493522,-1.243963 -0.685127,-1.772081 -0.147393,-0.528118 -0.456898,-1.139729 -0.928534,-1.834621 -2.138,-1.651745 -3.858091,-0.952208 -4.377327,0.18352 -0.511968,1.049169 -0.669292,1.745345 -0.949322,3.774434 -0.280031,2.029087 -1.009591,5.197797 -2.188663,9.506134 l -1.923388,6.837537 c -0.854829,3.04363 -1.282353,5.177056 -1.282353,6.400067 0,0.472528 0.22108,0.959056 0.663241,1.459379 0.456881,0.500322 0.950741,0.750484 1.481327,0.750484 0.280031,0 0.641237,-0.145927 1.083381,-0.437782 0.456898,-0.291855 0.700085,-0.562864 0.72956,-0.813025 0.206343,-2.01519 1.06854,-6.129059 2.586611,-12.341401 0.781141,-3.238201 1.4073,-5.982922 1.878936,-8.234375 0.221081,-1.070136 0.420038,-1.841467 0.596905,-2.313994 0.486373,0.806075 1.673036,3.856447 3.559579,9.151531 0.91361,2.598899 1.657958,4.329182 2.232757,5.190848 0.574815,0.84777 1.164233,1.271759 1.768524,1.271759 0.795878,0 1.812821,-0.562863 3.05086,-1.688589 1.23804,-1.125727 3.382491,-3.648188 6.433355,-7.567384 3.05087,-3.933093 5.30586,-6.664022 6.76498,-8.192786 0.0737,0.152876 0.11075,0.458525 0.11075,0.917154 0,0.472527 -0.0665,1.056236 -0.19896,1.751129 -0.17687,0.819974 -0.26529,1.285657 -0.26531,1.396839 2e-5,0.166775 -0.0371,0.597505 -0.11075,1.292397 -1.01696,8.658365 -1.52544,14.099376 -1.52544,16.323032 0,2.432125 0.77377,3.648293 2.32132,3.648293 0.29477,0 0.68557,-0.06254 1.17194,-0.187621 0.50092,-0.12508 0.82524,-0.542017 0.97263,-1.250807 0.14737,-0.722689 0.22118,-1.271758 0.22118,-1.647001 0,-0.472527 -0.11802,-1.09793 -0.35384,-1.87621 -0.26529,-0.875565 -0.39793,-1.667744 -0.39793,-2.376533 0,-0.389141 0.13264,-2.126165 0.39793,-5.211488 0.2653,-3.099223 0.5527,-5.753819 0.8622,-7.963577 0.85485,-5.962181 0.22404,-6.367031 0.22404,-6.506011 0,-0.319647 -0.3612,-0.694892 -1.08339,-1.125726 -3.31833,-2.338276 -8.95031,5.758415 -9.59751,6.5895 z m 51.5995,-9.902328 c -0.72219,0 -3.62577,-3.578321 -8.71056,3.023161 -4.56894,5.948281 -7.22934,8.998653 -7.98101,9.151529 -0.17687,0 -0.40525,-0.201414 -0.68511,-0.604452 -0.26531,-0.416936 -0.98024,-2.223554 -2.14457,-5.420059 -1.13727,-3.119567 -3.71721,-5.538537 -5.92499,-5.608267 -2.01918,0 -3.02866,0.604552 -3.02866,1.813671 0,1.167419 -0.14012,2.765881 -0.42015,4.79497 -0.28003,2.029087 -1.00959,5.197797 -2.18866,9.506134 l -1.92337,6.837536 c -0.85485,3.04363 -1.28203,5.177057 -1.28203,6.400068 0,0.472527 0.22108,0.959055 0.66322,1.459378 0.4569,0.500323 0.95042,0.750485 1.481,0.750485 0.28004,0 0.64124,-0.145928 1.08339,-0.437782 0.45689,-0.291855 0.70008,-0.562864 0.72955,-0.813026 0.20635,-2.01519 1.06855,-6.129058 2.58662,-12.3414 0.78114,-3.238202 1.40764,-5.982923 1.87928,-8.234376 0.22089,-1.070135 0.42003,-1.841467 0.5969,-2.313993 0.62811,-2.028747 1.67271,-3.022721 3.55924,2.272363 0.91378,2.5989 1.65796,4.329183 2.23277,5.190849 0.5748,0.847769 1.16456,1.271758 1.76883,1.271758 0.79588,0 1.81284,-0.562862 3.05088,-1.688589 1.23802,-1.125726 3.38247,-3.648187 6.43335,-7.567384 3.05088,-3.933093 5.30586,0.215145 6.76498,-1.313619 0.0735,0.152877 0.11041,0.458526 0.11041,0.917154 0,0.472527 -0.0663,1.056237 -0.19895,1.75113 -0.17687,0.819974 -0.2653,1.285657 -0.2653,1.396839 0,0.166775 -0.0368,0.597504 -0.11043,1.292397 -1.01696,8.658365 -1.52544,14.099375 -1.52544,16.323032 0,2.432125 0.77378,3.648292 2.32132,3.648292 0.29477,0 0.68523,-0.06254 1.1716,-0.187621 0.50111,-0.12508 0.82524,-0.542016 0.97263,-1.250807 0.14738,-0.722688 0.22119,-1.271757 0.22119,-1.647 0,-0.472527 -0.11803,-1.097931 -0.35384,-1.876211 -0.2653,-0.875565 -0.39794,-1.667743 -0.39794,-2.376533 0,-0.389141 0.13264,-2.126164 0.39794,-5.211488 0.26529,-3.099222 0.55269,-5.753818 0.86221,-7.963577 0.85483,-5.96218 1.28235,-9.012864 1.28235,-9.151843 0,-0.319647 -0.3612,-0.694893 -1.08339,-1.125726 -0.70744,-0.444732 -1.35572,-0.666993 -1.94526,-0.666993 z m 31.12881,0.106944 c -0.24225,-0.0052 -0.50714,7.87e-4 -0.79454,0.01814 l -0.33162,0.02095 c -0.0884,0 -0.34623,0.03464 -0.77366,0.10413 -4.06782,0.653199 -7.56833,1.111822 -10.50129,1.375888 -2.93296,0.264059 -4.56893,0.396194 -4.90793,0.396194 h -0.0882 c -0.79588,-0.08339 -1.50334,-0.125081 -2.12235,-0.125081 h -0.0663 c -0.36848,0 -0.75179,0.118026 -1.14972,0.354291 -0.39795,0.236263 -0.59691,0.507271 -0.59691,0.813024 v 0.208573 c 0,0.264058 0.0517,0.493372 0.15487,0.687943 0.0884,0.208467 0.184,0.472423 0.28718,0.792074 0.0294,0.05559 0.0812,0.125185 0.15486,0.208571 0.29477,0.416937 0.44204,0.673838 0.44204,0.771124 0,1.931801 -0.32414,4.558497 -0.97263,7.880085 -0.16213,0.792176 -0.28014,1.466326 -0.35383,2.022242 -0.14738,1.612151 -0.47152,3.801064 -0.97263,6.566737 -0.48637,2.765674 -0.9139,4.641884 -1.28236,5.628632 -0.26529,0.680994 -0.62614,1.298831 -0.39795,1.354936 v 0.08349 l 0.0885,0.708894 c 0.0884,1.000645 0.34625,1.626049 0.77365,1.87621 0.44216,0.26406 1.52545,0.395882 3.24985,0.395882 0.6927,0 2.13719,-0.152668 4.33322,-0.458421 4.34787,-0.583711 7.546,-0.910519 9.59466,-0.980008 2.3729,-0.06949 4.31123,-0.416831 5.81456,-1.042234 0.26529,-0.194571 0.39793,-0.548966 0.39793,-1.063187 2e-5,-0.708791 -0.25812,-1.222908 -0.77398,-1.542557 -0.50111,-0.33355 -0.9579,-0.500323 -1.37057,-0.500323 -0.54532,0 -1.82757,0.201415 -3.84675,0.604452 -1.62124,0.277957 -3.22047,0.521065 -4.79749,0.729533 l -4.24469,0.583814 c -1.12012,0.166775 -2.0854,0.229314 -2.89601,0.187622 l -0.39793,-0.02095 c -0.86957,-0.09729 -1.34132,-0.493375 -1.41501,-1.188268 v -0.22921 c 0,-0.597609 0.17686,-1.973496 0.53058,-4.127664 0.35372,-2.154168 0.68535,-3.425822 0.99486,-3.814961 0.32424,-0.403037 2.87411,-0.854613 7.64938,-1.354936 3.90571,-0.40304 6.47022,-0.729848 7.6935,-0.980009 1.23804,-0.264058 1.85705,-0.965796 1.85705,-2.105421 0,-0.931156 -0.92105,-1.396839 -2.76336,-1.396839 -1.13486,0 -2.77832,0.243421 -4.93014,0.729847 -1.04643,0.222365 -2.62356,0.444626 -4.73116,0.666992 -2.10761,0.222366 -3.50754,0.312807 -4.20025,0.271113 l -0.33161,-0.02095 c 0,-0.90336 0.36086,-2.724084 1.08305,-5.461961 0.23582,-0.91726 0.39056,-1.757871 0.46426,-2.522254 0.0884,-1.000645 0.49385,-1.661002 1.21605,-1.980652 0.7369,-0.319651 2.51302,-0.500219 5.32806,-0.541913 1.87179,-0.0139 3.12447,-0.07644 3.75821,-0.18762 0.50111,-0.08339 0.96538,-0.138875 1.39279,-0.166671 0.61901,-0.04169 1.32646,-0.15298 2.12234,-0.333652 0.79588,-0.166774 1.56966,-0.236369 2.32132,-0.208573 0.76641,0.02779 1.17182,0.03485 1.21604,0.02095 0.22108,-0.02779 0.52309,-0.22247 0.90631,-0.583813 0.38319,-0.361345 0.57469,-0.736587 0.57469,-1.125726 -0.10318,-0.819979 -0.37562,-1.368732 -0.81778,-1.646689 -0.32039,-0.218891 -0.8444,-0.336154 -1.5712,-0.351789 z M 68.108373,21.17985 c -0.28003,0 -0.700084,0.173515 -1.260146,0.520961 -0.545323,0.347446 -0.884422,0.667195 -1.017061,0.959057 -0.132655,0.291854 -0.250674,0.854718 -0.353836,1.688589 -0.147393,1.195216 -0.383092,2.578157 -0.707336,4.148614 -0.442161,2.084679 -0.707453,3.773269 -0.795879,5.06577 -0.04423,0.486424 -0.103061,0.97264 -0.176766,1.459067 -0.08825,0.500322 -0.147596,0.986851 -0.177071,1.459378 -0.02947,0.26406 -0.147171,1.049184 -0.353515,2.355582 -0.589366,3.460568 -0.884406,6.170649 -0.884406,8.130247 0,1.87621 0.154745,3.238305 0.464251,4.086075 0.309522,0.83387 0.862215,1.250807 1.658093,1.250807 0.560062,0 1.120225,-0.243109 1.680303,-0.729533 0.559891,-0.486426 0.766166,-1.278605 0.61879,-2.376534 -0.250555,-1.890109 -0.375723,-3.815067 -0.375723,-5.774664 0,-1.3064 0.294888,-3.73842 0.884424,-7.296271 0.132637,-0.847769 0.243187,-1.633206 0.331612,-2.355895 0.132655,-1.070135 0.412567,-2.390224 0.83999,-3.96068 0.899041,-3.335487 1.392885,-5.274237 1.481327,-5.816254 0,-0.750484 -0.15476,-1.403787 -0.464266,-1.959702 -0.309506,-0.569812 -0.773773,-0.854614 -1.392785,-0.854614 z"
         style="font-style:normal;font-variant:normal;font-weight:normal;font-stretch:normal;font-size:70.55555725px;line-height:1.25;font-family:'Segoe Print';-inkscape-font-specification:'Segoe Print';letter-spacing:0px;word-spacing:0px;fill:#000000;fill-opacity:1;stroke:#0f0000;stroke-width:0.16513397;stroke-miterlimit:4;stroke-dasharray:none;stroke-opacity:1"
         id="text3715" />
      <flowRoot
         style="font-style:normal;font-weight:normal;font-size:40px;line-height:1.25;font-family:sans-serif;letter-spacing:0px;word-spacing:0px;fill:#000000;fill-opacity:1;stroke:none"
         id="flowRoot3717"
         xml:space="preserve"><flowRegion
           id="flowRegion3719"><rect
             y="125.37683"
             x="2.8571429"
             height="251.42857"
             width="74.285713"
             id="rect3721" /></flowRegion><flowPara
           id="flowPara3723" /></flowRoot>      <path
         sodipodi:nodetypes="cc"
         inkscape:connector-curvature="0"
         id="path3754"
         d="m 123.95573,36.982879 c 7.37403,5.126566 10.49884,6.58493 20.89369,0.167672"
         style="fill:none;stroke:#000000;stroke-width:0.5;stroke-linecap:round;stroke-linejoin:round;stroke-miterlimit:4;stroke-dasharray:none;stroke-opacity:1" />
      <path
         sodipodi:nodetypes="cssc"
         inkscape:connector-curvature="0"
         id="path3756"
         d="m 94.330519,47.664369 c 0,0 1.58949,0.23901 7.083261,-0.241033 2.27769,-0.199028 4.52044,-0.477374 4.69299,-2.644008 l 0.31184,-3.916452"
         style="fill:none;stroke:#000000;stroke-width:0.43379909;stroke-linecap:round;stroke-linejoin:miter;stroke-miterlimit:4;stroke-dasharray:none;stroke-opacity:1" />
      <ellipse
         ry="1.4050871"
         rx="1.3595071"
         cy="38.140701"
         cx="85.492783"
         id="path4563"
         style="stroke-width:1.14120018;stroke-linecap:round;stroke-linejoin:miter;stroke-miterlimit:4;stroke-dasharray:none" />
      <ellipse
         ry="1.4797157"
         rx="1.5497261"
         cy="37.592003"
         cx="103.71394"
         id="path4563-2"
         style="stroke-width:1.25036299;stroke-linecap:round;stroke-linejoin:miter;stroke-miterlimit:4;stroke-dasharray:none" />
      <ellipse
         ry="1.342764"
         rx="1.4704461"
         cy="33.965282"
         cx="141.41904"
         id="path4563-1"
         style="stroke-width:1.16022909;stroke-linecap:round;stroke-linejoin:miter;stroke-miterlimit:4;stroke-dasharray:none" />
      <ellipse
         ry="1.2422723"
         rx="1.3854986"
         cy="33.124611"
         cx="127.63023"
         id="path4563-1-2"
         style="stroke-width:1.08325553;stroke-linecap:round;stroke-linejoin:miter;stroke-miterlimit:4;stroke-dasharray:none" />
      <path
         sodipodi:nodetypes="cccc"
         inkscape:connector-curvature="0"
         id="path4701-7"
         d="m 64.609683,34.239507 c 0.450192,-0.694546 4.909604,-12.719168 1.973216,-11.855006 -2.936387,0.864169 -2.597584,14.755795 -2.597584,14.755795 z"
         style="fill:#ffffff;fill-opacity:1;stroke:#000000;stroke-width:0.93472064;stroke-linecap:butt;stroke-linejoin:miter;stroke-miterlimit:4;stroke-dasharray:none;stroke-opacity:1" />
      <ellipse
         cx="68.786041"
         cy="22.047045"
         rx="0.56577253"
         ry="1.4944751"
         transform="matrix(0.9962078,0.08700588,-0.15717886,0.98757015,0,0)"
         id="path4718"
         style="fill:#000000;fill-opacity:1;stroke:#0f0000;stroke-width:0.19048159;stroke-linecap:round;stroke-linejoin:miter;stroke-miterlimit:4;stroke-dasharray:none;stroke-opacity:1" />
      <ellipse
         ry="1.8565681"
         rx="1.9778334"
         cy="28.285612"
         cx="48.281448"
         id="path4720"
         style="fill:#000000;fill-opacity:1;stroke:#0f0000;stroke-width:0.43278801;stroke-linecap:round;stroke-linejoin:miter;stroke-miterlimit:4;stroke-dasharray:none;stroke-opacity:1" />
      <ellipse
         ry="1.5058987"
         rx="1.3625566"
         cy="28.056828"
         cx="171.05179"
         id="path4722"
         style="fill:#000000;fill-opacity:1;stroke:#0f0000;stroke-width:0.69906753;stroke-linecap:round;stroke-linejoin:miter;stroke-miterlimit:4;stroke-dasharray:none;stroke-opacity:1" />
      <ellipse
         ry="1.4519843"
         rx="1.313774"
         cy="26.610651"
         cx="180.79166"
         id="path4724"
         style="fill:#000000;fill-opacity:1;stroke:#0f0000;stroke-width:0.80163622;stroke-linecap:round;stroke-linejoin:miter;stroke-miterlimit:4;stroke-dasharray:none;stroke-opacity:1" />
    </g>
  </g>
</svg>
